<svg width="32" height="32" viewBox="0 0 32 32" fill="none" xmlns="http://www.w3.org/2000/svg">
<path d="M24.6265 22.4401L25.1465 26.6534C25.2799 27.7601 24.0932 28.5334 23.1465 27.9601L18.5332 25.2134C18.2132 25.0267 18.1332 24.6267 18.3065 24.3067C18.9732 23.0801 19.3332 21.6934 19.3332 20.3067C19.3332 15.4267 15.1465 11.4534 9.99986 11.4534C8.94653 11.4534 7.91986 11.6134 6.95986 11.9334C6.46652 12.0934 5.98653 11.6401 6.10653 11.1334C7.31986 6.28008 11.9865 2.66675 17.5599 2.66675C24.0665 2.66675 29.3332 7.58675 29.3332 13.6534C29.3332 17.2534 27.4799 20.4401 24.6265 22.4401Z" fill="#6C6C6C"/>
<path d="M17.3337 20.3067C17.3337 21.8934 16.747 23.36 15.7603 24.52C14.4403 26.12 12.347 27.1467 10.0003 27.1467L6.52033 29.2134C5.93366 29.5734 5.18699 29.08 5.26699 28.4L5.60033 25.7734C3.81366 24.5334 2.66699 22.5467 2.66699 20.3067C2.66699 17.96 3.92033 15.8934 5.84033 14.6667C7.02699 13.8934 8.45366 13.4534 10.0003 13.4534C14.0537 13.4534 17.3337 16.52 17.3337 20.3067Z" fill="#6C6C6C"/>
</svg>
